<mxfile host="app.diagrams.net" agent="Mozilla/5.0 (iPad; CPU OS 18_2_0 like Mac OS X) AppleWebKit/605.1.15 (KHTML, like Gecko) CriOS/131.0.6778.134 Mobile/15E148 Safari/604.1" version="25.0.3">
  <diagram name="Page-1" id="gJ-aCCuKZIOOjXW1FzO6">
    <mxGraphModel dx="1288" dy="1109" grid="0" gridSize="10" guides="1" tooltips="1" connect="1" arrows="1" fold="1" page="0" pageScale="1" pageWidth="827" pageHeight="1169" math="0" shadow="0">
      <root>
        <mxCell id="0" />
        <mxCell id="1" parent="0" />
        <mxCell id="NBt2bh_9L4snCOlauDUV-1" value="Frontend development diagram&lt;div&gt;&lt;br&gt;&lt;/div&gt;" style="text;strokeColor=none;fillColor=none;html=1;align=center;verticalAlign=middle;whiteSpace=wrap;rounded=0;fontSize=16;" vertex="1" parent="1">
          <mxGeometry x="20" y="198" width="391" height="30" as="geometry" />
        </mxCell>
        <mxCell id="NBt2bh_9L4snCOlauDUV-2" value="" style="rounded=0;whiteSpace=wrap;html=1;" vertex="1" parent="1">
          <mxGeometry x="-23" y="254" width="477" height="353" as="geometry" />
        </mxCell>
        <mxCell id="NBt2bh_9L4snCOlauDUV-6" value="" style="edgeStyle=none;curved=1;rounded=0;orthogonalLoop=1;jettySize=auto;html=1;fontSize=12;startSize=8;endSize=8;entryX=0.006;entryY=0.348;entryDx=0;entryDy=0;entryPerimeter=0;" edge="1" parent="1" source="NBt2bh_9L4snCOlauDUV-5" target="NBt2bh_9L4snCOlauDUV-2">
          <mxGeometry relative="1" as="geometry">
            <mxPoint x="-23" y="381" as="targetPoint" />
          </mxGeometry>
        </mxCell>
        <mxCell id="NBt2bh_9L4snCOlauDUV-5" value="Developer/User" style="rhombus;whiteSpace=wrap;html=1;" vertex="1" parent="1">
          <mxGeometry x="-199" y="315" width="122" height="118" as="geometry" />
        </mxCell>
        <mxCell id="NBt2bh_9L4snCOlauDUV-11" value="" style="edgeStyle=none;curved=1;rounded=0;orthogonalLoop=1;jettySize=auto;html=1;fontSize=12;startSize=8;endSize=8;" edge="1" parent="1" source="NBt2bh_9L4snCOlauDUV-7" target="NBt2bh_9L4snCOlauDUV-8">
          <mxGeometry relative="1" as="geometry" />
        </mxCell>
        <mxCell id="NBt2bh_9L4snCOlauDUV-7" value="Build frontend" style="ellipse;whiteSpace=wrap;html=1;" vertex="1" parent="1">
          <mxGeometry x="11" y="277" width="135" height="126" as="geometry" />
        </mxCell>
        <mxCell id="NBt2bh_9L4snCOlauDUV-12" style="edgeStyle=none;curved=1;rounded=0;orthogonalLoop=1;jettySize=auto;html=1;entryX=1;entryY=0;entryDx=0;entryDy=0;fontSize=12;startSize=8;endSize=8;" edge="1" parent="1" source="NBt2bh_9L4snCOlauDUV-8" target="NBt2bh_9L4snCOlauDUV-10">
          <mxGeometry relative="1" as="geometry" />
        </mxCell>
        <mxCell id="NBt2bh_9L4snCOlauDUV-8" value="Code registration page" style="ellipse;whiteSpace=wrap;html=1;" vertex="1" parent="1">
          <mxGeometry x="278" y="275" width="147" height="134" as="geometry" />
        </mxCell>
        <mxCell id="NBt2bh_9L4snCOlauDUV-10" value="Test frontend" style="ellipse;whiteSpace=wrap;html=1;" vertex="1" parent="1">
          <mxGeometry x="141" y="440" width="142" height="135" as="geometry" />
        </mxCell>
      </root>
    </mxGraphModel>
  </diagram>
</mxfile>
